# xmcd
#
# Track frame offsets:
#	150
#	26363
#	60638
#	88403
#	109375
#	132660
#	180848
#	213730
#
# Disc length: 3179 seconds
# Revision: 2
# Processed by: cddbd v1.5.2PL0 Copyright (c) Steve Scherf et al.
# Submitted via: dBpowerAMP V12.0
#
DISCID=730c6908
DTITLE=Billy Branch and The Sons Of Blues - Live '82 [CDA]
DYEAR=1994
DGENRE=Blues*
TTITLE0=Never Make Your Move Too Soon (Live Version)
TTITLE1=Did You Ever Love A Woman (Live Version)
TTITLE2=Eyesight To The Blind (Live Version)
TTITLE3=Sweet Little Angel (Live Version)
TTITLE4=My Kind Of Woman (Live Version)
TTITLE5=Reconsider Baby (Live Version)
TTITLE6=Detroit, Michigan (Live Version)
TTITLE7=Goin' On Main Street (Live Version)
EXTD=
EXTT0=
EXTT1=
EXTT2=
EXTT3=
EXTT4=
EXTT5=
EXTT6=
EXTT7=
PLAYORDER=
